<?xml version="1.0" encoding="UTF-8"?>
<svg width="64" height="64" version="1" xmlns="http://www.w3.org/2000/svg">
 <rect x="15" y="11" width="34" height="42" fill="#fff" stroke-width=".93778"/>
 <g transform="matrix(1.0537 0 0 1.0537 .18215 4.3774e-5)" fill="none">
  <g id="Logo" transform="translate(-1)" fill="#0078d7">
   <path id="Shape" d="m31.32 48.65c-10.09 0-14.7-5.14-14.7-8.91-0.0014-0.89936 0.36775-1.7596 1.0205-2.3783s1.5315-0.94123 2.4295-0.89172c4.32 0 3.19 6.48 11.25 6.48 4.12 0 6.54-2.48 6.54-4.81 0-1.4-0.8-3-3.52-3.64l-9-2.27c-7.23-1.84-8.49-5.86-8.49-9.59 0-7.74 7.08-10.54 13.82-10.54 6.21 0 13.59 3.43 13.59 8.07 0 2-1.67 3.07-3.61 3.07-3.69 0-3.07-5.18-10.49-5.18-3.69 0-5.63 1.73-5.63 4.15s2.87 3.24 5.39 3.79l6.64 1.5c7.28 1.64 9.22 5.91 9.22 10 0 6.29-4.87 11.15-14.47 11.15m27.87-13.31c0.28824-1.651 0.43212-3.324 0.43-5 0.035297-8.4189-3.6639-16.42-10.1-21.847-6.4365-5.4268-14.948-7.7206-23.24-6.2631-2.5486-1.4674-5.4392-2.2366-8.38-2.23-6.0364 0.036875-11.601 3.2721-14.619 8.4999-3.0182 5.2278-3.0377 11.664-0.051298 16.91-1.6664 9.1563 1.2526 18.549 7.8155 25.147 6.5629 6.5988 15.939 9.569 25.104 7.9525 2.5455 1.4661 5.4325 2.2353 8.37 2.23 6.0333-0.03887 11.594-3.2727 14.612-8.4973 3.0175-5.2247 3.0398-11.657 0.058414-16.903"/>
  </g>
 </g>
</svg>
