<?xml version="1.0" encoding="UTF-8"?>
<svg xmlns="http://www.w3.org/2000/svg" xmlns:xlink="http://www.w3.org/1999/xlink" width="16px" height="16px" viewBox="0 0 16 16" version="1.1">
<g id="surface26624650">
<path style=" stroke:none;fill-rule:nonzero;fill:rgb(13.333334%,13.333334%,13.333334%);fill-opacity:1;" d="M 6 3 C 4.355469 3 3 4.355469 3 6 L 3 13 C 3 14.644531 4.355469 16 6 16 L 13 16 C 14.644531 16 16 14.644531 16 13 L 16 6 C 16 4.355469 14.644531 3 13 3 Z M 6 5 L 13 5 C 13.570312 5 14 5.429688 14 6 L 14 13 C 14 13.570312 13.570312 14 13 14 L 6 14 C 5.429688 14 5 13.570312 5 13 L 5 6 C 5 5.429688 5.429688 5 6 5 Z M 6 5 "/>
<path style=" stroke:none;fill-rule:nonzero;fill:rgb(13.333334%,13.333334%,13.333334%);fill-opacity:1;" d="M 3 0 C 1.355469 0 0 1.355469 0 3 L 0 10 C 0 11.292969 0.839844 12.40625 2 12.824219 L 2 3 C 2 2.429688 2.429688 2 3 2 L 12.820312 2 C 12.40625 0.839844 11.292969 0 10 0 Z M 3 0 "/>
</g>
</svg>
