<?xml version="1.0" encoding="UTF-8"?>
<svg width="64" height="64" version="1.1" xmlns="http://www.w3.org/2000/svg">
 <defs>
  <linearGradient id="SVGID_1_" x1="800" x2="800" y1="1590.3" y2="-9.0949e-13" gradientTransform="scale(.04)" gradientUnits="userSpaceOnUse">
   <stop stop-color="#1569CB" offset="0"/>
   <stop stop-color="#29AEF3" offset="1"/>
  </linearGradient>
 </defs>
 <path d="m64 32c0-17.672-14.328-32-32-32s-32 14.328-32 32c0 15.972 11.7 29.212 27 31.612v-22.36h-8.124v-9.252h8.124v-7.048c0-8.02 4.776-12.452 12.088-12.452 3.5 0 7.164 0.624 7.164 0.624v7.876h-4.036c-3.976 0-5.216 2.468-5.216 4.996v6.004h8.876l-1.42 9.252h-7.456v22.36c15.3-2.4 27-15.64 27-31.612" fill="url(#SVGID_1_)" stroke-width=".04"/>
 <path d="m45.876 32h-8.876v-6.004c0-2.532 1.24-4.996 5.216-4.996h4.036v-7.876s-3.664-0.624-7.164-0.624c-7.312 0-12.088 4.432-12.088 12.452v7.048h-8.124v9.252h8.124v22.36c1.628 0.256 3.3 0.388 5 0.388s3.372-0.132 5-0.388v-22.36h7.456z" fill="#fff" stroke-width=".04"/>
</svg>
