<?xml version="1.0" encoding="UTF-8"?>
<svg width="64" height="64" version="1.1" viewBox="0 0 48 48" xmlns="http://www.w3.org/2000/svg">
 <rect x="7.125" y="3.267" width="33.75" height="33.75" fill="#fff" stroke-width=".75157"/>
 <g transform="matrix(.10752 0 0 .056515 -30.192 -4.4835)" fill="#00a0e9">
  <rect x="489.08" y="311.99" width="29.83" height="56.438"/>
  <path d="m614.08 79.333h-220.16c-47.071 0-85.227 72.186-85.227 161.22v416.48c0 89.035 38.154 161.22 85.227 161.22h73.275l36.425 110.41 36.433-110.41h74.023c47.066 0 85.229-72.186 85.229-161.22v-416.48c0-89.038-38.161-161.22-85.229-161.22zm-188.76 289.09h31.59v-56.438h-31.59v-60.858h31.59v-59.758h32.175v59.758h29.83v-59.758h32.174v59.758h31.586v60.858h-31.586v56.438h31.586v60.854h-31.586v59.76h-32.175v-59.76h-29.83v59.76h-32.175v-59.76h-31.59zm226.27 186.26s-42.472 151.32-143.31 151.32c-1.397 0-2.775-0.033-4.146-0.08-1.37 0.047-2.749 0.08-4.144 0.08-100.84 0-143.31-151.32-143.31-151.32s-2.749-9.854-2.749-20.477c-0.173-7.666 1.81-18.656 7.01-25.129 2.893-3.597 5.626-5.376 8.162-5.933 12.144-2.437 19.181 12.521 24.967 29.601 6.392 18.846 43.261 101.42 110.06 104.58 66.808-3.16 103.68-85.732 110.07-104.58 5.787-17.08 13.079-32.063 24.968-29.601 2.535 0.557 5.271 2.336 8.16 5.933 5.203 6.473 7.229 15.592 7.046 25.121-0.407 14.022-2.782 20.485-2.782 20.485z"/>
 </g>
</svg>
