<?xml version="1.0" encoding="UTF-8"?>
<svg xmlns="http://www.w3.org/2000/svg" xmlns:xlink="http://www.w3.org/1999/xlink" width="64pt" height="64pt" viewBox="0 0 64 64" version="1.1">
<g id="surface1">
<path style=" stroke:none;fill-rule:nonzero;fill:rgb(14.509804%,85.098039%,97.254902%);fill-opacity:1;" d="M 50.75 0 L 13.25 0 C 8.074219 0 3.875 4.324219 3.875 9.5 L 3.875 47 C 3.875 52.175781 8.074219 56.375 13.25 56.375 L 23.710938 56.375 L 30.6875 63.4375 C 31.023438 63.8125 31.511719 64 32 64 C 32.488281 64 32.976562 63.8125 33.3125 63.4375 L 40.289062 56.375 L 50.75 56.375 C 55.925781 56.375 60.125 52.175781 60.125 47 L 60.125 9.5 C 60.125 4.324219 55.925781 0 50.75 0 Z M 50.75 0 "/>
<path style=" stroke:none;fill-rule:nonzero;fill:rgb(0%,75.294118%,94.509804%);fill-opacity:1;" d="M 60.125 9.5 L 60.125 47 C 60.125 52.175781 55.925781 56.375 50.75 56.375 L 40.289062 56.375 L 33.3125 63.4375 C 32.976562 63.8125 32.488281 64 32 64 L 32 0 L 50.75 0 C 55.925781 0 60.125 4.324219 60.125 9.5 Z M 60.125 9.5 "/>
<path style=" stroke:none;fill-rule:nonzero;fill:rgb(92.941176%,96.078431%,100%);fill-opacity:1;" d="M 41.375 22.625 L 37.625 22.625 L 37.625 18.875 L 41.375 18.875 C 42.425781 18.875 43.25 18.050781 43.25 17 C 43.25 15.949219 42.425781 15.125 41.375 15.125 L 37.625 15.125 L 37.625 11.375 C 37.625 10.324219 36.800781 9.5 35.75 9.5 C 34.699219 9.5 33.875 10.324219 33.875 11.375 L 33.875 15.125 L 30.125 15.125 L 30.125 11.375 C 30.125 10.324219 29.300781 9.5 28.25 9.5 C 27.199219 9.5 26.375 10.324219 26.375 11.375 L 26.375 15.125 L 22.625 15.125 C 21.574219 15.125 20.75 15.949219 20.75 17 C 20.75 18.050781 21.574219 18.875 22.625 18.875 L 26.375 18.875 L 26.375 22.625 L 22.625 22.625 C 21.574219 22.625 20.75 23.449219 20.75 24.5 C 20.75 25.550781 21.574219 26.375 22.625 26.375 L 26.375 26.375 L 26.375 30.125 C 26.375 31.175781 27.199219 32 28.25 32 C 29.300781 32 30.125 31.175781 30.125 30.125 L 30.125 26.375 L 33.875 26.375 L 33.875 30.125 C 33.875 31.175781 34.699219 32 35.75 32 C 36.800781 32 37.625 31.175781 37.625 30.125 L 37.625 26.375 L 41.375 26.375 C 42.425781 26.375 43.25 25.550781 43.25 24.5 C 43.25 23.449219 42.425781 22.625 41.375 22.625 Z M 33.875 22.625 L 30.125 22.625 L 30.125 18.875 L 33.875 18.875 Z M 33.875 22.625 "/>
<path style=" stroke:none;fill-rule:nonzero;fill:rgb(92.941176%,96.078431%,100%);fill-opacity:1;" d="M 48.574219 36.800781 C 44.863281 42.351562 38.675781 45.648438 32 45.648438 C 25.324219 45.648438 19.136719 42.351562 15.425781 36.800781 C 14.863281 35.9375 15.085938 34.773438 15.949219 34.175781 C 16.8125 33.613281 17.976562 33.835938 18.574219 34.699219 C 21.574219 39.199219 26.601562 41.898438 32 41.898438 C 37.398438 41.898438 42.425781 39.199219 45.425781 34.699219 C 46.023438 33.835938 47.1875 33.613281 48.050781 34.175781 C 48.914062 34.773438 49.136719 35.9375 48.574219 36.800781 Z M 48.574219 36.800781 "/>
<path style=" stroke:none;fill-rule:nonzero;fill:rgb(84.313725%,91.372549%,100%);fill-opacity:1;" d="M 43.25 24.5 C 43.25 25.550781 42.425781 26.375 41.375 26.375 L 37.625 26.375 L 37.625 30.125 C 37.625 31.175781 36.800781 32 35.75 32 C 34.699219 32 33.875 31.175781 33.875 30.125 L 33.875 26.375 L 32 26.375 L 32 22.625 L 33.875 22.625 L 33.875 18.875 L 32 18.875 L 32 15.125 L 33.875 15.125 L 33.875 11.375 C 33.875 10.324219 34.699219 9.5 35.75 9.5 C 36.800781 9.5 37.625 10.324219 37.625 11.375 L 37.625 15.125 L 41.375 15.125 C 42.425781 15.125 43.25 15.949219 43.25 17 C 43.25 18.050781 42.425781 18.875 41.375 18.875 L 37.625 18.875 L 37.625 22.625 L 41.375 22.625 C 42.425781 22.625 43.25 23.449219 43.25 24.5 Z M 43.25 24.5 "/>
<path style=" stroke:none;fill-rule:nonzero;fill:rgb(84.313725%,91.372549%,100%);fill-opacity:1;" d="M 48.574219 36.800781 C 44.863281 42.351562 38.675781 45.648438 32 45.648438 L 32 41.898438 C 37.398438 41.898438 42.425781 39.199219 45.425781 34.699219 C 46.023438 33.835938 47.1875 33.613281 48.050781 34.175781 C 48.914062 34.773438 49.136719 35.9375 48.574219 36.800781 Z M 48.574219 36.800781 "/>
</g>
</svg>
