<svg height="512pt" viewBox="-31 0 512 512" width="512pt" xmlns="http://www.w3.org/2000/svg"><path d="m375 0h-300c-41.398438 0-75 34.601562-75 76v300c0 41.398438 33.601562 75 75 75h83.699219l55.800781 56.5c2.699219 3 6.601562 4.5 10.5 4.5s7.800781-1.5 10.5-4.5l55.800781-56.5h83.699219c41.398438 0 75-33.601562 75-75v-300c0-41.398438-33.601562-76-75-76zm0 0" fill="#25d9f8"/><path d="m450 76v300c0 41.398438-33.601562 75-75 75h-83.699219l-55.800781 56.5c-2.699219 3-6.601562 4.5-10.5 4.5v-512h150c41.398438 0 75 34.601562 75 76zm0 0" fill="#00c0f1"/><path d="m300 181h-30v-30h30c8.402344 0 15-6.601562 15-15 0-8.402344-6.597656-15-15-15h-30v-30c0-8.402344-6.597656-15-15-15s-15 6.597656-15 15v30h-30v-30c0-8.402344-6.597656-15-15-15s-15 6.597656-15 15v30h-30c-8.402344 0-15 6.597656-15 15 0 8.398438 6.597656 15 15 15h30v30h-30c-8.402344 0-15 6.597656-15 15 0 8.398438 6.597656 15 15 15h30v30c0 8.398438 6.597656 15 15 15s15-6.601562 15-15v-30h30v30c0 8.398438 6.597656 15 15 15s15-6.601562 15-15v-30h30c8.402344 0 15-6.601562 15-15 0-8.402344-6.597656-15-15-15zm-60 0h-30v-30h30zm0 0" fill="#edf5ff"/><path d="m357.597656 294.398438c-29.699218 44.402343-79.195312 70.800781-132.597656 70.800781s-102.898438-26.398438-132.597656-70.800781c-4.503906-6.898438-2.703125-16.199219 4.199218-21 6.898438-4.5 16.199219-2.699219 21 4.199218 24 36 64.199219 57.601563 107.398438 57.601563 43.203125 0 83.402344-21.601563 107.402344-57.601563 4.796875-6.898437 14.097656-8.699218 21-4.199218 6.898437 4.800781 8.699218 14.101562 4.195312 21zm0 0" fill="#edf5ff"/><g fill="#d7e9ff"><path d="m315 196c0 8.398438-6.597656 15-15 15h-30v30c0 8.398438-6.597656 15-15 15s-15-6.601562-15-15v-30h-15v-30h15v-30h-15v-30h15v-30c0-8.402344 6.597656-15 15-15s15 6.597656 15 15v30h30c8.402344 0 15 6.597656 15 15 0 8.398438-6.597656 15-15 15h-30v30h30c8.402344 0 15 6.597656 15 15zm0 0"/><path d="m357.597656 294.398438c-29.699218 44.402343-79.195312 70.800781-132.597656 70.800781v-30c43.199219 0 83.402344-21.601563 107.402344-57.601563 4.796875-6.898437 14.097656-8.699218 21-4.199218 6.898437 4.800781 8.699218 14.101562 4.195312 21zm0 0"/></g></svg>