<?xml version="1.0" encoding="UTF-8"?>
<svg width="64" height="64" version="1" xmlns="http://www.w3.org/2000/svg" xmlns:xlink="http://www.w3.org/1999/xlink">
 <defs>
  <clipPath>
   <rect width="642" height="134"/>
  </clipPath>
  <clipPath>
   <rect width="212" height="212"/>
  </clipPath>
  <clipPath>
   <rect width="212" height="212"/>
  </clipPath>
  <clipPath>
   <rect width="119" height="112"/>
  </clipPath>
  <linearGradient id="linearGradient2628" x2="1" gradientTransform="matrix(0 -41.642 41.642 0 17.484 72.617)" gradientUnits="userSpaceOnUse">
   <stop stop-color="#20b038" offset="0"/>
   <stop stop-color="#60d66a" offset="1"/>
  </linearGradient>
  <linearGradient id="linearGradient2630" x2="1" gradientTransform="matrix(0 -43.134 43.134 0 17.484 73.368)" gradientUnits="userSpaceOnUse">
   <stop stop-color="#f9f9f9" offset="0"/>
   <stop stop-color="#fff" offset="1"/>
  </linearGradient>
 </defs>
 <g transform="matrix(1.4836 0 0 1.4836 6.0608 -44.846)" stroke-width=".61631">
  <path d="m7.8728 66.521 0.64922 0.38484c2.728 1.6189 5.8556 2.4751 9.045 2.4768h7e-3c9.795 0 17.767-7.9702 17.771-17.766 0.0015-4.7474-1.8451-9.2108-5.2003-12.569-3.3554-3.3577-7.8167-5.2081-12.564-5.2101-9.8024 0-17.774 7.9689-17.778 17.765-0.0013 3.3567 0.93772 6.626 2.7169 9.4542l0.42288 0.67227-1.7957 6.5557zm-11.86 6.8417 3.0332-11.076c-1.8709-3.2416-2.8552-6.9187-2.8536-10.686 0.0046-11.785 9.5954-21.373 21.382-21.373 5.7193 0.0025 11.087 2.2283 15.124 6.2685 4.0364 4.0401 6.2587 9.4105 6.2568 15.122-5e-3 11.785-9.5978 21.374-21.381 21.374-8.69e-4 0 4.35e-4 0 0 0h-0.0091c-3.5783-0.0012-7.0944-0.89883-10.217-2.6021z" fill="#fff"/>
  <path d="m-3.0705 51.613c-0.0013 3.6362 0.94881 7.1862 2.7554 10.316l-2.9285 10.692 10.942-2.8691c3.0148 1.6428 6.409 2.5101 9.8635 2.5112h0.0089c11.376 0 20.635-9.257 20.64-20.634 0.0022-5.5136-2.1429-10.697-6.0402-14.598-3.8966-3.9001-9.0789-6.0491-14.601-6.0517-11.377 0-20.636 9.2558-20.641 20.634m20.642 20.65h2.18e-4 -2.18e-4c-2.17e-4 0-4.34e-4 0 0 0" fill="url(#linearGradient2628)"/>
  <path d="m-3.8076 51.606c-0.0013 3.7668 0.98296 7.4444 2.8539 10.686l-3.0335 11.075 11.335-2.9719c3.123 1.7031 6.6389 2.6006 10.217 2.6021h0.0091c11.783 0 21.376-9.5898 21.381-21.374 2e-3 -5.7117-2.2203-11.082-6.2568-15.122-4.0371-4.0399-9.4049-6.266-15.124-6.2685-11.786 0-21.377 9.588-21.382 21.373m6.7499 10.128-0.4231-0.67203c-1.7792-2.8286-2.7182-6.0978-2.7169-9.4542 0.0039-9.795 7.9757-17.765 17.778-17.765 4.747 0.0018 9.2083 1.8524 12.564 5.2101 3.3554 3.3579 5.2018 7.8216 5.2005 12.568-0.0044 9.7957-7.9763 17.766-17.771 17.766h-7e-3c-3.1894-0.0018-6.3172-0.85797-9.045-2.4766l-0.64918-0.38484-6.7264 1.7635zm14.632 11.264h2.17e-4 -2.17e-4c-2.18e-4 0-4.35e-4 0 0 0" fill="url(#linearGradient2630)"/>
  <path d="m12.23 42.67c-0.40027-0.88971-0.82142-0.90752-1.2021-0.92317-0.31156-0.01325-0.6679-0.01239-1.0238-0.01239-0.35635 0-0.93513 0.13372-1.4245 0.66833-0.48985 0.53464-1.87 1.827-1.87 4.4554 0 2.6286 1.9146 5.1685 2.1814 5.5253 0.26721 0.35614 3.696 5.9226 9.1257 8.0638 4.513 1.7796 5.4314 1.4257 6.4109 1.3365 0.9795-0.08893 3.1609-1.2919 3.6059-2.5395 0.44528-1.2474 0.44528-2.3166 0.31178-2.5399-0.1335-0.22264-0.48985-0.35636-1.0241-0.62334-0.53442-0.26721-3.1609-1.5598-3.6505-1.7381-0.48985-0.17807-0.84601-0.267-1.2024 0.26786-0.35614 0.5342-1.3793 1.7372-1.6911 2.0936-0.31156 0.357-0.62334 0.40158-1.1576 0.13436-0.53442-0.26808-2.2551-0.83165-4.2963-2.6514-1.5882-1.416-2.6604-3.1648-2.9722-3.6997-0.31156-0.5342-0.03326-0.82358 0.2346-1.0899 0.24004-0.23938 0.53442-0.62377 0.80164-0.93556 0.26656-0.312 0.35548-0.53464 0.53355-0.891 0.17829-0.35657 0.08914-0.66858-0.04436-0.93581-0.13372-0.26721-1.1719-2.9091-1.647-3.9655" fill="#fff" fill-rule="evenodd"/>
 </g>
</svg>
