<?xml version="1.0" encoding="UTF-8"?>
<svg xmlns="http://www.w3.org/2000/svg" xmlns:xlink="http://www.w3.org/1999/xlink" width="64pt" height="64pt" viewBox="0 0 64 64" version="1.1">
<g id="surface1">
<path style=" stroke:none;fill-rule:nonzero;fill:rgb(9.803922%,46.27451%,82.352941%);fill-opacity:1;" d="M 62 14 L 34 14 C 32.894531 14 32 14.898438 32 16 C 32 17.105469 32.894531 18 34 18 L 56.171875 18 L 43.882812 27.558594 L 35.070312 21.953125 L 32.929688 25.328125 L 42.929688 31.6875 C 43.253906 31.898438 43.628906 32 44 32 C 44.433594 32 44.867188 31.863281 45.226562 31.582031 L 60 20.089844 L 60 46 L 34 46 C 32.894531 46 32 46.898438 32 48 C 32 49.105469 32.894531 50 34 50 L 62 50 C 63.105469 50 64 49.105469 64 48 L 64 16 C 64 14.898438 63.105469 14 62 14 Z M 62 14 "/>
<path style=" stroke:none;fill-rule:nonzero;fill:rgb(12.941176%,58.823529%,95.294118%);fill-opacity:1;" d="M 35.277344 2.460938 C 34.820312 2.082031 34.207031 1.917969 33.632812 2.039062 L 1.632812 8.039062 C 0.683594 8.214844 0 9.039062 0 10 L 0 54 C 0 54.960938 0.683594 55.789062 1.632812 55.964844 L 33.632812 61.964844 C 33.753906 61.988281 33.875 62 34 62 C 34.464844 62 34.914062 61.839844 35.277344 61.542969 C 35.734375 61.160156 36 60.59375 36 60 L 36 4 C 36 3.40625 35.734375 2.839844 35.277344 2.460938 Z M 35.277344 2.460938 "/>
<path style=" stroke:none;fill-rule:nonzero;fill:rgb(98.039216%,98.039216%,98.039216%);fill-opacity:1;" d="M 18 46 C 12.488281 46 8 40.617188 8 34 C 8 27.386719 12.488281 22 18 22 C 23.511719 22 28 27.386719 28 34 C 28 40.617188 23.511719 46 18 46 Z M 18 26 C 14.691406 26 12 29.589844 12 34 C 12 38.414062 14.691406 42 18 42 C 21.308594 42 24 38.414062 24 34 C 24 29.589844 21.308594 26 18 26 Z M 18 26 "/>
</g>
</svg>
