<?xml version="1.0" encoding="UTF-8"?>
<svg width="64" height="64" version="1.1" viewBox="0 0 48 48" xmlns="http://www.w3.org/2000/svg">
 <path d="m42.893 3h-25.787a2.106 2.106 0 0 0-2.106 2.1061v2.3939l14.535 4.5 15.464-4.5v-2.394a2.1061 2.1061 0 0 0-2.1061-2.106z" fill="#0364b8" stroke-width="1.5"/>
 <path d="m47.475 26.108a17.012 17.012 0 0 0 0.52515-2.1076 0.99888 0.99888 0 0 0-0.49996-0.86518v-7.2e-4l-0.0192-0.01095-6e-3 -0.0034-16.257-9.2611a2.2482 2.2482 0 0 0-0.21798-0.12414v-9e-5a2.2504 2.2504 0 0 0-2 0l-9e-5 9e-5a2.2363 2.2363 0 0 0-0.2179 0.12414l-16.257 9.2612-6e-3 0.0034-0.01913 0.01095v7.2e-4a0.999 0.999 0 0 0-0.49996 0.86518 17.015 17.015 0 0 0 0.52514 2.1075l17.238 12.608z" fill="#0a2767" stroke-width="1.5"/>
 <polygon transform="matrix(1.5,0,0,1.5,-1.47e-4,-2e-6)" points="30 11 24 5 17 5 14.979 8 17 11 24 17 30 17" fill="#28a8ea"/>
 <rect x="15" y="7.5" width="10.5" height="9" fill="#0078d4" stroke-width="1.5"/>
 <rect x="35.999" y="7.5" width="8.9999" height="9" fill="#50d9ff" stroke-width="1.5"/>
 <polygon transform="matrix(1.5,0,0,1.5,-1.47e-4,-2e-6)" points="10 11 10 17 17 23 27.832 24.768 24 17 17 11" fill="#0364b8"/>
 <g stroke-width="1.5">
  <line x1="15.047" x2="44.999" y1="7.5" y2="7.5" fill="none"/>
  <rect x="25.499" y="16.5" width="10.5" height="9" fill="#0078d4"/>
  <rect x="15" y="25.5" width="10.5" height="9" fill="#064a8c"/>
  <rect x="35.999" y="25.5" width="8.9999" height="9" fill="#0078d4"/>
  <path d="m30.286 37.826-17.69-12.901 0.74121-1.3038s16.118 9.1802 16.364 9.3179a0.79275 0.79275 0 0 0 0.63135-0.0183c0.22998-0.12964 16.399-9.345 16.399-9.345l0.74414 1.3037z" fill="#0a2767" opacity=".5"/>
  <path d="m47.5 24.865v7.35e-4l-0.0199 0.0114-5e-3 0.0029-16.257 9.2613a2.2451 2.2451 0 0 1-2.1907 0.13677l5.662 7.5913 12.381 2.6955-4.5e-4 0.0067a2.2463 2.2463 0 0 0 0.92996-1.8218v-18.75a0.999 0.999 0 0 1-0.49996 0.86508z" fill="#1490df"/>
  <path d="m48 42.75v-1.107l-14.974-8.5313-1.8075 1.0297a2.2453 2.2453 0 0 1-2.1907 0.13677l5.662 7.5914 12.381 2.6954-4.5e-4 0.0068a2.2463 2.2463 0 0 0 0.92994-1.8217z" opacity=".05"/>
  <path d="m47.925 43.325-16.414-9.3504-0.29242 0.16664a2.2453 2.2453 0 0 1-2.1907 0.13677l5.662 7.5913 12.381 2.6954-4.5e-4 0.0068a2.252 2.252 0 0 0 0.85494-1.2465z" opacity=".1"/>
  <path d="m12.525 24.885v-0.015h-0.015l-0.045-0.03a0.97602 0.97602 0 0 1-0.465-0.84v18.75a2.247 2.247 0 0 0 2.25 2.25h31.5a2.254 2.254 0 0 0 0.555-0.075 0.9554 0.9554 0 0 0 0.27-0.09 0.21266 0.21266 0 0 0 0.09-0.03 1.5713 1.5713 0 0 0 0.345-0.195c0.03-0.015 0.045-0.015 0.06-0.045z" fill="#28a8ea"/>
  <path d="m27 37v-24.5a2.0059 2.0059 0 0 0-2.0001-2h-9.9532v6h9e-5v5.184l-2.5213 1.4364-6e-3 0.0034-0.01921 0.01095v7.19e-4a0.99886 0.99886 0 0 0-0.49998 0.86506l2.85e-4 0.0063-6e-4 -0.0054v14.999h13a2.006 2.006 0 0 0 2.0001-2.0001z" opacity=".1"/>
  <path d="m25.5 38.5v-24.5a2.0059 2.0059 0 0 0-2.0001-2h-8.4532v4.5h9e-5v5.184l-2.5213 1.4364-6e-3 0.0034-0.01921 0.01095v7.19e-4a0.99886 0.99886 0 0 0-0.49998 0.86506l2.85e-4 0.0063-6e-4 -0.0054v16.499h11.5a2.006 2.006 0 0 0 2.0001-2.0001z" opacity=".2"/>
  <path d="m25.5 35.5v-21.5a2.0059 2.0059 0 0 0-2.0001-2h-8.4532v4.5h9e-5v5.184l-2.5213 1.4364-6e-3 0.0034-0.01921 0.01095v7.19e-4a0.99886 0.99886 0 0 0-0.49998 0.86506l2.85e-4 0.0063-6e-4 -0.0054v13.499h11.5a2.006 2.006 0 0 0 2.0001-2.0001z" opacity=".2"/>
  <path d="m24 35.5v-21.5a2.0059 2.0059 0 0 0-2.0001-2h-6.9532v4.5h9e-5v5.184l-2.5213 1.4364-6e-3 0.0034-0.01921 0.01095v7.19e-4a0.99886 0.99886 0 0 0-0.49998 0.86506l2.85e-4 0.0063-6e-4 -0.0054v13.499h9.9999a2.006 2.006 0 0 0 2.0001-2.0001z" opacity=".2"/>
  <path id="Back_Plate" d="m2.0001 12h20a2 2 0 0 1 2 2v20a2 2 0 0 1-2 2h-20a2 2 0 0 1-2-2v-20a2 2 0 0 1 2-2z" fill="#0078d4" data-name="Back Plate"/>
  <path d="m5.7998 20.202a6.2721 6.2721 0 0 1 2.4629-2.7208 7.4478 7.4478 0 0 1 3.9143-0.98115 6.9254 6.9254 0 0 1 3.621 0.93054 6.2086 6.2086 0 0 1 2.3971 2.5995 8.3954 8.3954 0 0 1 0.8395 3.8233 8.852 8.852 0 0 1-0.8648 4.0003 6.3585 6.3585 0 0 1-2.468 2.6904 7.1988 7.1988 0 0 1-3.7575 0.95584 7.093 7.093 0 0 1-3.7019-0.94066 6.3063 6.3063 0 0 1-2.4275-2.6045 8.1884 8.1884 0 0 1-0.84963-3.7778 9.0828 9.0828 0 0 1 0.83445-3.975zm2.6247 6.3874a4.0744 4.0744 0 0 0 1.3857 1.7903 3.6171 3.6171 0 0 0 2.1645 0.6524 3.7995 3.7995 0 0 0 2.3112-0.67266 3.9043 3.9043 0 0 0 1.3452-1.7954 6.9385 6.9385 0 0 0 0.42987-2.4983 7.5941 7.5941 0 0 0-0.40458-2.5287 4.003 4.003 0 0 0-1.2997-1.8611 3.581 3.581 0 0 0-2.2909-0.708 3.7395 3.7395 0 0 0-2.2151 0.65745 4.1115 4.1115 0 0 0-1.416 1.8055 7.1637 7.1637 0 0 0-0.01011 5.1585z" fill="#fff"/>
 </g>
</svg>
