<?xml version="1.0" encoding="UTF-8"?>
<svg width="64" height="64" version="1.1" viewBox="0 0 48 48" xmlns="http://www.w3.org/2000/svg">
 <defs>
  <linearGradient id="linearGradient-1" x1="1.321" x2="211.76" y1="127.76" y2="127.76" gradientTransform="matrix(.22662 0 0 .15651 -.040536 5.7486)" gradientUnits="userSpaceOnUse">
   <stop stop-opacity=".1" offset="0"/>
   <stop stop-opacity=".2" offset="1"/>
  </linearGradient>
 </defs>
 <g stroke-width=".18833">
  <path d="m44.939 42.209h-41.938c-1.6262 0-2.9955-1.3266-2.9955-2.9955v-30.298c0-1.6262 1.3266-2.9955 2.9955-2.9955h41.938c1.6262 0 2.9955 1.3266 2.9955 2.9955v30.298c0 1.6689-1.3266 2.9955-2.9955 2.9955z" fill="#e3e3e3"/>
  <path d="m5.9973 42.209 17.93-14.421 0.12838-0.77028-18.487-13.309-0.042793 27.859z" fill="#231f20" opacity=".1"/>
  <path d="m3.0018 42.209c-1.6689 0-2.9955-1.3266-2.9955-2.9955v-30.341c0-1.6689 1.3266-1.9685 2.9955-1.9685 1.6689 0 2.9955 0.34235 2.9955 1.9685v33.336z" fill="#d54b3d"/>
  <path d="m3.0018 7.332c2.1397 0 2.5676 0.6419 2.5676 1.5406v32.908h-2.5676c-1.4122 0-2.5676-1.1554-2.5676-2.5676v-30.341c0-0.94146 0.42793-1.5406 2.5676-1.5406zm0-0.42793c-1.6689 0-2.9955 0.34235-2.9955 1.9685v30.341c0 1.6689 1.3266 2.9955 2.9955 2.9955h2.9955v-33.336c0-1.6689-1.3266-1.9685-2.9955-1.9685z" fill="#d72b27"/>
  <path d="m44.939 42.209h-2.9955v-33.422c0-1.6689 1.3266-1.8829 2.9955-1.8829 1.6689 0 2.9955 0.21397 2.9955 1.8829v30.469c0 1.6262-1.3266 2.9527-2.9955 2.9527z" fill="#d54b3d"/>
  <path d="m44.939 7.332c1.9257 0 2.5676 0.38514 2.5676 1.455v30.469c0 1.4122-1.1554 2.5676-2.5676 2.5676h-2.5676v-33.037c0-1.1126 0.6419-1.455 2.5676-1.455zm0-0.42793c-1.6689 0-2.9955 0.21397-2.9955 1.8829v33.464h2.9955c1.6689 0 2.9955-1.3266 2.9955-2.9955v-30.469c0-1.6689-1.3266-1.8829-2.9955-1.8829z" fill="#d72b27"/>
  <path d="m32.101 42.209-31.844-32.092 1.675 0.68133 22.167 15.962 23.836-17.478v29.974c0 1.6262-1.3266 2.9527-2.9955 2.9527z" fill="url(#linearGradient-1)"/>
  <path d="m23.928 27.787-22.638-16.433c-1.3266-0.98425-1.7117-2.8672-0.72749-4.1938 0.98425-1.3266 2.91-1.6262 4.2793-0.6419l19.129 13.908 19.257-14.079c1.3266-0.98425 3.2095-0.68469 4.1938 0.68469 0.98425 1.3266 0.68469 3.2095-0.6847 4.1938z" fill="#d54b3d"/>
  <path d="m44.939 6.1765c0.81308 0 1.5834 0.38514 2.0969 1.0698 0.81308 1.1554 0.55631 2.7388-0.55632 3.5946l-22.552 16.433-22.381-16.262c-1.1554-0.85587-1.455-2.482-0.6419-3.5946 0.47073-0.6419 1.2838-1.0698 2.1397-1.0698 0.55631 0 1.1126 0.17117 1.5406 0.51352l19.086 13.865 0.25676 0.17117 0.25676-0.17117 19.214-14.079c0.47073-0.29955 0.98425-0.47073 1.5406-0.47073zm0-0.42793c-0.59911 0-1.241 0.17117-1.7545 0.55631l-19.257 14.079-19.129-13.908c-0.51352-0.38514-1.1554-0.55631-1.7973-0.55631-0.94146 0-1.8829 0.42793-2.482 1.241-0.94146 1.3266-0.55631 3.2095 0.77028 4.1938l22.638 16.475 22.766-16.604c1.3266-0.98425 1.6262-2.8244 0.6847-4.1938-0.59911-0.85587-1.4978-1.2838-2.4392-1.2838z" fill="#d72b27"/>
 </g>
</svg>
