<?xml version="1.0" encoding="UTF-8"?>
<svg width="64" height="64" version="1.1" xmlns="http://www.w3.org/2000/svg">
 <path d="m60.578 38.367c-0.87755 4.5146-7.8597 9.4555-15.879 10.413-4.1815 0.49894-8.2986 0.95755-12.689 0.75618-7.1797-0.32895-12.845-1.7137-12.845-1.7137 0 0.69894 0.0431 1.3644 0.1293 1.9868 0.93341 7.0856 7.0259 7.51 12.797 7.708 5.8249 0.1993 11.012-1.4361 11.012-1.4361l0.2393 5.266s-4.0743 2.1878-11.332 2.5902c-4.0022 0.21999-8.9717-0.10068-14.76-1.6327-12.553-3.3226-14.712-16.704-15.042-30.281-0.10069-4.0312-0.038619-7.8324-0.038619-11.012 0-13.884 9.0965-17.953 9.0965-17.953 4.5867-2.1065 12.457-2.9923 20.639-3.0592h0.20103c8.1821 0.066894 16.058 0.95272 20.644 3.0592 0 0 9.0962 4.0695 9.0962 17.953 0 0 0.11413 10.243-1.2686 17.355" fill="#2b90d9" stroke-width=".27585"/>
 <path d="m51.117 22.089v16.811h-6.6601v-16.317c0-3.4395-1.4472-5.1853-4.3419-5.1853-3.2006 0-4.8046 2.0709-4.8046 6.1659v8.931h-6.6208v-8.931c0-4.095-1.6044-6.1659-4.805-6.1659-2.8947 0-4.3419 1.7458-4.3419 5.1853v16.317h-6.6601v-16.811c0-3.4357 0.87479-6.1659 2.632-8.1859 1.812-2.0199 4.185-3.0554 7.1307-3.0554 3.4081 0 5.9891 1.3099 7.6955 3.9302l1.6589 2.7809 1.6592-2.7809c1.7061-2.6202 4.2871-3.9302 7.6955-3.9302 2.9454 0 5.3184 1.0355 7.1307 3.0554 1.7568 2.0199 2.6316 4.7501 2.6316 8.1859" fill="#fff" stroke-width=".27585"/>
</svg>
