<?xml version="1.0" encoding="UTF-8" standalone="no"?>
<svg
   xmlns:dc="http://purl.org/dc/elements/1.1/"
   xmlns:cc="http://creativecommons.org/ns#"
   xmlns:rdf="http://www.w3.org/1999/02/22-rdf-syntax-ns#"
   xmlns:svg="http://www.w3.org/2000/svg"
   xmlns="http://www.w3.org/2000/svg"
   xmlns:sodipodi="http://sodipodi.sourceforge.net/DTD/sodipodi-0.dtd"
   xmlns:inkscape="http://www.inkscape.org/namespaces/inkscape"
   width="62.01548"
   height="62.01548"
   viewBox="0 0 62.01548 62.01548"
   version="1.1"
   id="svg10"
   sodipodi:docname="icon.svg"
   inkscape:version="0.92.4 5da689c313, 2019-01-14">
  <metadata
     id="metadata16">
    <rdf:RDF>
      <cc:Work
         rdf:about="">
        <dc:format>image/svg+xml</dc:format>
        <dc:type
           rdf:resource="http://purl.org/dc/dcmitype/StillImage" />
        <dc:title></dc:title>
      </cc:Work>
    </rdf:RDF>
  </metadata>
  <defs
     id="defs14" />
  <sodipodi:namedview
     pagecolor="#ffffff"
     bordercolor="#666666"
     borderopacity="1"
     objecttolerance="10"
     gridtolerance="10"
     guidetolerance="10"
     inkscape:pageopacity="0"
     inkscape:pageshadow="2"
     inkscape:window-width="1920"
     inkscape:window-height="1009"
     id="namedview12"
     showgrid="false"
     fit-margin-top="0"
     fit-margin-left="0"
     fit-margin-right="0"
     fit-margin-bottom="0"
     inkscape:zoom="2.6818182"
     inkscape:cx="20.753504"
     inkscape:cy="31.007741"
     inkscape:window-x="0"
     inkscape:window-y="34"
     inkscape:window-maximized="1"
     inkscape:current-layer="svg10" />
  <path
     d="m 51.407741,17.507741 a 24.5,24.5 0 0 1 -40.8,27.1 l -5.4,3.6 a 31.007741,31.007741 0 0 0 51.6,-34.4 z"
     id="path2"
     inkscape:connector-curvature="0"
     style="fill:#69b3e7" />
  <path
     d="m 6.507741,31.007741 a 24.4,24.4 0 0 1 44.9,-13.5 l 5.4,-3.7 a 31.007741,31.007741 0 1 0 -51.6,34.4 l 5.4,-3.6 a 24.3,24.3 0 0 1 -4.1,-13.6 z"
     id="path4"
     inkscape:connector-curvature="0"
     style="fill:#0067b9" />
  <path
     d="m 16.207741,40.607741 h 28.4 a 1,1 0 0 0 1,-1 v -18.5 z"
     id="path6"
     inkscape:connector-curvature="0"
     style="fill:#ffffff" />
  <path
     d="m 31.007741,31.007741 -14.9,-10 v 19.8 z"
     id="path8"
     inkscape:connector-curvature="0"
     style="fill:#ffc107" />
</svg>
