<?xml version="1.0" encoding="UTF-8"?>
<svg xmlns="http://www.w3.org/2000/svg" xmlns:xlink="http://www.w3.org/1999/xlink" width="64pt" height="64pt" viewBox="0 0 64 64" version="1.1">
<g id="surface1">
<path style=" stroke:none;fill-rule:nonzero;fill:rgb(31.764706%,56.078431%,88.235294%);fill-opacity:1;" d="M 56.199219 0 L 7.800781 0 C 3.492188 0 0 3.492188 0 7.800781 L 0 56.199219 C 0 60.507812 3.492188 64 7.800781 64 L 56.199219 64 C 60.507812 64 64 60.507812 64 56.199219 L 64 7.800781 C 64 3.492188 60.507812 0 56.199219 0 Z M 27.839844 49.882812 C 27.839844 51.882812 26.21875 53.507812 24.214844 53.507812 L 11.945312 53.507812 C 9.941406 53.507812 8.320312 51.882812 8.320312 49.882812 L 8.320312 12.488281 C 8.320312 10.484375 9.941406 8.863281 11.945312 8.863281 L 24.214844 8.863281 C 26.21875 8.863281 27.839844 10.488281 27.839844 12.488281 Z M 55.679688 33.796875 C 55.679688 35.796875 54.058594 37.417969 52.054688 37.417969 L 39.785156 37.417969 C 37.78125 37.417969 36.160156 35.796875 36.160156 33.796875 L 36.160156 12.488281 C 36.160156 10.484375 37.78125 8.863281 39.785156 8.863281 L 52.054688 8.863281 C 54.058594 8.863281 55.679688 10.488281 55.679688 12.488281 Z M 55.679688 33.796875 "/>
</g>
</svg>
