<?xml version="1.0" encoding="UTF-8"?>
<svg height="16px" viewBox="0 0 16 16" width="16px" xmlns="http://www.w3.org/2000/svg" xmlns:xlink="http://www.w3.org/1999/xlink">
    <filter id="a" height="100%" width="100%" x="0%" y="0%">
        <feColorMatrix in="SourceGraphic" type="matrix" values="0 0 0 0 1 0 0 0 0 1 0 0 0 0 1 0 0 0 1 0"/>
    </filter>
    <mask id="b">
        <g filter="url(#a)">
            <rect fill-opacity="0.35" height="16" width="16"/>
        </g>
    </mask>
    <clipPath id="c">
        <rect height="152" width="192"/>
    </clipPath>
    <mask id="d">
        <g filter="url(#a)">
            <rect fill-opacity="0.393" height="16" width="16"/>
        </g>
    </mask>
    <linearGradient id="e" gradientTransform="matrix(0.232143 0 0 0.197368 -8.513947 204.696167)" gradientUnits="userSpaceOnUse" x1="88.595886" x2="536.595886" y1="-449.394012" y2="-449.394012">
        <stop offset="0"/>
        <stop offset="0.0384615" stop-color="#c0bfbc"/>
        <stop offset="0.0768555"/>
        <stop offset="0.923077"/>
        <stop offset="0.961538" stop-color="#c0bfbc"/>
        <stop offset="1"/>
    </linearGradient>
    <clipPath id="f">
        <rect height="152" width="192"/>
    </clipPath>
    <path d="m 1.875 1 l 6.5625 6.5625 l 6.5625 -6.5625 z m 0 0" fill="#241f31"/>
    <g clip-path="url(#c)" mask="url(#b)" transform="matrix(1 0 0 1 -160 0)">
        <path d="m 161 15 l 6.5625 -6.5625 l -6.5625 -6.5625 z m 0 0" fill="#241f31"/>
    </g>
    <path d="m 15 15 v -12.25 l -12.25 12.25 z m 0 0" fill="#241f31"/>
    <g clip-path="url(#f)" mask="url(#d)" transform="matrix(1 0 0 1 -160 0)">
        <path d="m 12.054688 104 v 4 c 0 4.433594 3.566406 8 8 8 h 88 c 4.429687 0 8 -3.566406 8 -8 v -4 c 0 4.433594 -3.570313 8 -8 8 h -88 c -4.433594 0 -8 -3.566406 -8 -8 z m 0 0" fill="url(#e)"/>
    </g>
</svg>
