<?xml version="1.0" encoding="UTF-8"?>
<svg width="64" height="64" version="1" xmlns="http://www.w3.org/2000/svg">
 <path d="m20.126 58.002c24.151 0 37.361-20.009 37.361-37.361 0-0.56832 0-1.1341-0.0384-1.6972a26.716 26.716 0 0 0 6.5511-6.7968 26.209 26.209 0 0 1-7.5417 2.0659 13.176 13.176 0 0 0 5.7728-7.2627 26.314 26.314 0 0 1-8.3379 3.1872 13.143 13.143 0 0 0-22.377 11.976 37.279 37.279 0 0 1-27.062-13.719 13.141 13.141 0 0 0 4.0652 17.528 13.033 13.033 0 0 1-5.9596-1.6435v0.1664a13.135 13.135 0 0 0 10.534 12.872 13.11 13.11 0 0 1-5.9289 0.22528 13.145 13.145 0 0 0 12.267 9.1187 26.347 26.347 0 0 1-16.307 5.632 26.729 26.729 0 0 1-3.1257-0.18944 37.174 37.174 0 0 0 20.127 5.888" fill="#1da1f2" stroke-width=".256"/>
</svg>
