<?xml version="1.0" encoding="UTF-8"?>
<svg width="64" height="64" version="1" xmlns="http://www.w3.org/2000/svg">
 <g transform="matrix(.52117 0 0 .52117 -38.358 -38.358)" fill="#e01e5a">
  <path class="st0" d="m99.4 151.2c0 7.1-5.8 12.9-12.9 12.9s-12.9-5.8-12.9-12.9 5.8-12.9 12.9-12.9h12.9z"/>
  <path class="st0" d="m105.9 151.2c0-7.1 5.8-12.9 12.9-12.9s12.9 5.8 12.9 12.9v32.3c0 7.1-5.8 12.9-12.9 12.9s-12.9-5.8-12.9-12.9z"/>
 </g>
 <g transform="matrix(.52117 0 0 .52117 -38.358 -38.358)" fill="#36c5f0">
  <path class="st1" d="m118.8 99.4c-7.1 0-12.9-5.8-12.9-12.9s5.8-12.9 12.9-12.9 12.9 5.8 12.9 12.9v12.9z"/>
  <path class="st1" d="m118.8 105.9c7.1 0 12.9 5.8 12.9 12.9s-5.8 12.9-12.9 12.9h-32.3c-7.1 0-12.9-5.8-12.9-12.9s5.8-12.9 12.9-12.9z"/>
 </g>
 <g transform="matrix(.52117 0 0 .52117 -38.358 -38.358)" fill="#2eb67d">
  <path class="st2" d="m170.6 118.8c0-7.1 5.8-12.9 12.9-12.9s12.9 5.8 12.9 12.9-5.8 12.9-12.9 12.9h-12.9z"/>
  <path class="st2" d="m164.1 118.8c0 7.1-5.8 12.9-12.9 12.9s-12.9-5.8-12.9-12.9v-32.3c0-7.1 5.8-12.9 12.9-12.9s12.9 5.8 12.9 12.9z"/>
 </g>
 <g transform="matrix(.52117 0 0 .52117 -38.358 -38.358)" fill="#ecb22e">
  <path class="st3" d="m151.2 170.6c7.1 0 12.9 5.8 12.9 12.9s-5.8 12.9-12.9 12.9-12.9-5.8-12.9-12.9v-12.9z"/>
  <path class="st3" d="m151.2 164.1c-7.1 0-12.9-5.8-12.9-12.9s5.8-12.9 12.9-12.9h32.3c7.1 0 12.9 5.8 12.9 12.9s-5.8 12.9-12.9 12.9z"/>
 </g>
</svg>
