<?xml version="1.0" encoding="UTF-8"?>
<svg width="64" height="64" version="1.1" xmlns="http://www.w3.org/2000/svg">
 <defs>
  <linearGradient id="Bubble_Solid_1_" x1="512" x2="512" y1="11.5" y2="1005.5" gradientTransform="matrix(.064386 0 0 .064386 -.9658 -.74004)" gradientUnits="userSpaceOnUse">
   <stop stop-color="#00B2FF" offset="0"/>
   <stop stop-color="#006AFF" offset="1"/>
  </linearGradient>
 </defs> 
 <path id="Bubble_Solid_3_" class="st0" d="m32 4.046e-4c-18.028 0-32 13.206-32 31.041 0 9.3296 3.8245 17.391 10.051 22.96 0.52153 0.47002 0.83702 1.1203 0.86278 1.8221l0.17384 5.6918c0.05795 1.8157 1.9316 2.994 3.5928 2.2664l6.3485-2.8008c0.54084-0.23823 1.1396-0.2833 1.7062-0.12877 2.9167 0.80483 6.0266 1.2298 9.2652 1.2298 18.028 0 32-13.206 32-31.041 0-17.835-13.972-31.041-32-31.041z" clip-rule="evenodd" fill="url(#Bubble_Solid_1_)" fill-rule="evenodd" stroke-width=".064386"/>
 <path id="Bolt_4_" class="st1" d="m12.787 40.12 9.4004-14.912c1.4938-2.3694 4.7002-2.9618 6.9408-1.2813l7.4753 5.608c0.68893 0.51509 1.629 0.50865 2.3115-0.0064l10.096-7.662c1.3457-1.0237 3.1099 0.59235 2.202 2.0217l-9.394 14.905c-1.4938 2.3694-4.7002 2.9618-6.9408 1.2813l-7.4753-5.608c-0.68893-0.51509-1.629-0.50865-2.3115 0.0064l-10.102 7.6684c-1.3457 1.0237-3.1099-0.59235-2.202-2.0217z" clip-rule="evenodd" fill="#fff" fill-rule="evenodd" stroke-width=".064386"/>
</svg>
