<?xml version="1.0" encoding="UTF-8"?>
<svg width="64" height="64" version="1.1" xmlns="http://www.w3.org/2000/svg">
 <g fill="#7289da" stroke-width=".064">
  <path d="m26.222 26.85c-1.8114 0-3.2773 1.5859-3.2773 3.5417 0 1.957 1.466 3.5426 3.2773 3.5426 1.8088 0 3.2748-1.5856 3.2748-3.5426 0-1.9557-1.466-3.5417-3.2748-3.5417z"/>
  <path d="m37.886 26.85c-1.8089 0-3.2748 1.5859-3.2748 3.5417 0 1.957 1.466 3.5426 3.2748 3.5426 1.8114 0 3.2773-1.5856 3.2773-3.5426 0-1.9557-1.466-3.5417-3.2773-3.5417z"/>
  <path d="m53.45 0h-42.901c-3.6177 0-6.5497 2.9569-6.5497 6.6055v43.266c0 3.6485 2.9319 6.6055 6.5497 6.6055h36.3l-1.6976-5.9101 4.0884 3.8021 3.8593 3.5877 6.9004 6.0431v-57.395c0-3.6485-2.932-6.6055-6.5497-6.6055zm-12.356 41.801s-1.1412-1.3832-2.098-2.596c4.2035-1.179 5.787-3.8096 5.787-3.8096-1.3228 0.86688-2.5687 1.4706-3.6915 1.899-1.5966 0.66327-3.152 1.1096-4.6517 1.3867-3.0623 0.56931-5.882 0.43091-8.2944-0.01763-1.8192-0.33952-3.4052-0.8543-4.6974-1.3767-0.73421-0.28118-1.5222-0.64368-2.3512-1.1017-0.10502-0.05706-0.2047-0.1113-0.29693-0.16394-0.04845-0.0271-0.0944-0.05168-0.14067-0.08006-0.57075-0.32784-0.88272-0.54567-0.88272-0.54567s1.5379 2.5569 5.6082 3.7608c-0.9646 1.2231-2.1358 2.6448-2.1358 2.6448-7.0695-0.21689-9.7714-4.8796-9.7714-4.8796 0-10.299 4.6055-18.649 4.6055-18.649 4.6105-3.4692 8.9777-3.3593 8.9777-3.3593l0.33008 0.37654c-5.7745 1.6564-8.402 4.2057-8.402 4.2057s0.68829-0.39846 1.9004-0.9145c3.4364-1.5095 6.1433-1.916 7.2636-2.0243 0.17939-0.0257 0.35568-0.05296 0.5376-0.07626 1.9673-0.2489 4.1522-0.31856 6.4728-0.05786 3.0395 0.34298 6.3146 1.2538 9.6429 3.0729 0 0-2.515-2.4112-7.9747-4.0676l0.44794-0.51462s4.3695-0.10982 8.9774 3.3593c0 0 4.608 8.3498 4.608 18.649 0 0-2.7016 4.6627-9.7707 4.8796z"/>
 </g>
</svg>
