<?xml version="1.0" encoding="UTF-8"?>
<svg width="64" height="64" version="1.1" xmlns="http://www.w3.org/2000/svg">
 <defs>
  <linearGradient id="a" x1="116.69" x2="116.69" y2="232.87" gradientTransform="matrix(.27453 0 0 .27483 -.020737 1.85e-7)" gradientUnits="userSpaceOnUse">
   <stop stop-color="#111D2E" offset="0"/>
   <stop stop-color="#051839" offset=".21248"/>
   <stop stop-color="#0A1B48" offset=".40695"/>
   <stop stop-color="#132E62" offset=".5811"/>
   <stop stop-color="#144B7E" offset=".7376"/>
   <stop stop-color="#136497" offset=".87279"/>
   <stop stop-color="#1387B8" offset="1"/>
  </linearGradient>
 </defs>
 <path d="m1.3227 41.204c3.9534 13.187 16.183 22.796 30.657 22.796 17.673 0 32-14.327 32-32 0-17.673-14.327-32-32-32-16.959 0-30.835 13.193-31.931 29.874 2.0708 3.4774 2.8789 5.6282 1.2748 11.33z" fill="url(#a)" stroke-width=".27468"/>
 <path d="m30.331 23.985c0 0.05384 0 0.10767 0.0027 0.15822l-7.8305 11.375c-1.2685-0.05768-2.5413 0.16481-3.7483 0.66197-0.53205 0.217-1.0306 0.48343-1.4984 0.79107l-17.195-7.0785c1.3459e-4 0-0.39787 6.5456 1.2602 11.424l12.156 5.0156c0.61034 2.7276 2.4814 5.12 5.242 6.2709 4.5165 1.887 9.7242-0.26369 11.603-4.7821 0.48893-1.1811 0.71691-2.4199 0.68395-3.656l11.204-8.0069c0.09064 0.0027 0.18404 0.0055 0.27468 0.0055 6.7049 0 12.155-5.4661 12.155-12.179 0-6.7131-5.4496-12.174-12.155-12.174-6.7021 0-12.155 5.4612-12.155 12.174zm-1.8788 23.05c-1.4541 3.4912-5.4661 5.1475-8.9534 3.6944-1.6088-0.67021-2.8234-1.898-3.5241-3.3621l3.9567 1.6398c2.5718 1.0712 5.5224-0.14833 6.5915-2.7193 1.0723-2.5737-0.14421-5.5293-2.7146-6.6005l-4.0902-1.6948c1.5783-0.5988 3.3725-0.62077 5.0489 0.07691 1.6901 0.70318 3.0014 2.0271 3.6963 3.7191s0.69219 3.5598-0.01099 5.2464m14.033-14.937c-4.4635 0-8.0975-3.6395-8.0975-8.1134 0-4.4704 3.634-8.111 8.0975-8.111 4.4663 0 8.1003 3.6406 8.1003 8.111 0 4.474-3.634 8.1134-8.1003 8.1134m-6.0676-8.1258c0-3.3656 2.7248-6.0954 6.0814-6.0954 3.3593 0 6.0841 2.7298 6.0841 6.0954 0 3.3659-2.7248 6.0932-6.0841 6.0932-3.3566 0-6.0814-2.7273-6.0814-6.0932z" fill="#fff" stroke-width=".27468"/>
</svg>
