<?xml version="1.0" encoding="UTF-8"?>
<svg width="64" height="64" version="1" xmlns="http://www.w3.org/2000/svg">
 <path d="m25.14 18.549v9.0398l9.1534-0.0094c0.11624 0 0.2223-0.0031 0.32782-0.01 2.4067-0.15909 4.288-2.138 4.288-4.5049 0-2.4903-2.0661-4.5154-4.6067-4.5154zm-9.0527 44.649c-4.9993 0-9.0527-3.9725-9.0527-8.8734v-16.911c-0.032686-0.30663-0.050394-0.61851-0.050394-0.93406-5.379e-4 -0.32133 0.016633-0.63846 0.050394-0.95139v-25.852c0-4.9008 4.0534-8.8739 9.0527-8.8739h18.215c12.524 0 22.713 9.987 22.713 22.263 0 11.671-9.3002 21.427-21.173 22.211-0.50459 0.03413-1.0247 0.05145-1.54 0.05145l-9.1625 0.0089v8.9894c0 4.9008-4.0528 8.8734-9.0527 8.8734z" fill="#a2ddef" fill-rule="evenodd"/>
 <path d="m25.14 18.549v9.0398l9.1534-0.0094c0.11624 0 0.2223-0.0031 0.32782-0.01 2.4067-0.15909 4.288-2.138 4.288-4.5049 0-2.4903-2.0661-4.5154-4.6067-4.5154zm-9.0527 44.649c-4.9993 0-9.0527-3.9725-9.0527-8.8734v-16.911c-0.032686-0.30663-0.050394-0.61851-0.050394-0.93406-5.379e-4 -0.32133 0.016633-0.63846 0.050394-0.95139v-25.852c0-4.9008 4.0534-8.8739 9.0527-8.8739h18.215c12.524 0 22.713 9.987 22.713 22.263 0 11.671-9.3002 21.427-21.173 22.211-0.50459 0.03413-1.0247 0.05145-1.54 0.05145l-9.1625 0.0089v8.9894c0 4.9008-4.0528 8.8734-9.0527 8.8734z" fill="none" stroke="#368bd6" stroke-width="1.6035"/>
 <path d="m16.088 54.325v-44.649h18.215c7.5437 0 13.659 5.9945 13.659 13.389 0 7.0877-5.6186 12.889-12.727 13.358-0.30855 0.02048-0.61869 0.03098-0.93205 0.03098l-18.266 0.01785" fill="none" stroke="#368bd6" stroke-linecap="round" stroke-width="1.6035"/>
 <path id="Combined-Shape" d="m23.547 4.5864c1.3879 1.9411 1.9209 4.2965 1.5009 6.6293-0.42049 2.3344-1.7436 4.3679-3.7255 5.7273-4.0919 2.8064-9.7523 1.8293-12.618-2.1784-1.3879-1.9411-1.9209-4.296-1.5004-6.6298 0.41996-2.3339 1.743-4.3679 3.7255-5.7267 4.0919-2.8064 9.7517-1.8293 12.617 2.1784zm24.49 58.607c-2.8529 0-5.6598-1.3179-7.4216-3.7819l-12.794-17.897c-2.869-4.0135-1.8754-9.547 2.2187-12.359 4.0941-2.8137 9.7394-1.8393 12.608 2.1742l12.794 17.897c2.8695 4.0135 1.8759 9.547-2.2182 12.359-1.5813 1.0863-3.3934 1.6077-5.1874 1.6077z" fill="#368bd6" fill-rule="evenodd"/>
</svg>
